# xmcd CD database file
# Copyright (C) 1993-1998 Ti Kan
# 
# Track frame offsets:
#     150
#     17835
#     28932
#     40537
#     53562
#     67562
#     81762
#     96935
#     113290
#     124537
#     132385
#     144150
#     158520
# 
# Disc length: 2292 seconds
# 
# Revision: 1
# Processed by: cddbd v1.4b41PL1 Copyright (c) Steve Scherf et al.
# Submitted via: DiscPlay 4.0.4
# 
DISCID=9008f20d
DTITLE=River Band - Alive At Least
DYEAR=1900
DGENRE=
TTITLE0=God Blessed Texas
TTITLE1=Two Of A Kind
TTITLE2=Texas When I Die
TTITLE3=Carmelita
TTITLE4=Guitars And Cadillacs
TTITLE5=Ashes Of Love
TTITLE6=Blame It On Your Heart
TTITLE7=A Little Bit More
TTITLE8=Chattahoochee
TTITLE9=Puttin' On A Style
TTITLE10=The Whiskey Ain't Workin'
TTITLE11=Oh Lonesome Me
TTITLE12=Much Too Young
EXTD=
EXTT0=
EXTT1=
EXTT2=
EXTT3=
EXTT4=
EXTT5=
EXTT6=
EXTT7=
EXTT8=
EXTT9=
EXTT10=
EXTT11=
EXTT12=
PLAYORDER=
